/* XPM */
static char *collectible__64_1729582922[] = {
/* columns rows colors chars-per-pixel */
"64 64 15 1 ",
"  c #3E423D",
". c #3D413D",
"X c #40433E",
"o c #3B3F3C",
"O c #3A3E3B",
"+ c #313338",
"@ c #D0D0D0",
"# c #BCBBBD",
"$ c #5A5965",
"% c #403F4E",
"& c #ACABAF",
"* c #4E4D5B",
"= c #71707A",
"- c gray93",
"; c #94939B",
/* pixels */
"O.. X.oo... X.  X....X .OO.... oOo. X.oo... X.  X....X .OO.... .",
"O. X..oo.X X .XX ooo. X o.....oOO. X..oo.X X .XX ooo. X o.....oo",
".  Xo...XXX...  . oo.XXX.X...XX..  Xo...XXX...  . oo.XXX.X...XX.",
". Xoo.Xo.X....... ..X X.XX.oo.... Xoo.Xo.X....... ..X X.XX.oo...",
"...o. X...o..X.. X.o. ...o..X.o....o. X...o..X.. X.o. ...o..X.o.",
"..ooXX . X... .o  ...Xo.X... X....ooXX . X... .o  ...Xo.X... X.o",
"..ooX . XXX.. X   ...  o... X  oo.ooX . XXX.. X   ...  o... X  o",
"o..XX oX X ..X X ..o X ... X ..oo..XX oX X ..X X ..o X ... X ...",
"..XXX ..o. XX o.....XXX..o . .....XXX ..o. XX o.....XXX..o . ...",
"..   .. o. XXX.oo. X.X ... X ..oo.   .. o. XXX.oo. X.X ... X ..o",
"o.X. ...o.. X ....XXXX .o.XX.o .o.X. ...o.. X ....XXXX .o.XX.o .",
" X.  ...o. X.Xo..o.X  ...X X.oo. X.  ...o. X.Xo..o.X  ...X X.oo.",
"X ....... XXXX.....X . o.X .... X ....... XXXX.....X . o.X .....",
" .o...o. X.XX.oX ............. X .o...o. X.XX.oX ............. X",
"  o. .o.X.o. ..X X...o...o...XX   o. .o.X.o. ..X X...o...o...XX ",
"....XX.X .o.....X .o..X . .X .......XX.X .o.....X .o..X . .X ...",
"o..o......o....o. .o.X.   X   X.o..o......o....o. .o.X.   X   X.",
"o.XoO.....o.. X..oo.X ...XX  . ...XoO.....o.. X..oo.X ...XX  ...",
".o.oO..ooX.. X.o. .XX X.. XXXoOO++OOO..ooX.. X.o. .XX X.. XXX...",
"X.X.o .oX . X ... XXX  .oo X.O%%%%%OOX.oX . X ... XXX  .oo X.o..",
"o.X... XX  X .  XXXX X..oo .+$#####$Oo XX  X .  XXXX X..oo ..o.X",
"o..oo XXX X ....X X.. ... o+$#@@@@@@=+XXX X ....X X.. ... ooX ..",
"o.X.oXXXXX .oo.o.o... .o..+$&@&*%*&@@=+XXX .oo.o.o... .o....XX..",
"..    XX.. X.oXX .......X+$&@&*+++*&@@=+.. X.oXX .......X  X . X",
"...XXo.XX ....   ..o... X+=@&*+. .+*&-;+X ....   ..o... X XXX.  ",
".X XX..   .. X....X..  X.+=@;+o..X.+;-;+  .. X....X..  X.XXXXXo.",
".o.X .. ... . .....X..XXX+=@;+o..o.+;-;+... . .....X..XXXXX.X ..",
".oooX ..o.oo. Xo.....ooX +=@&$+  o+*&-;+o.oo. Xo.....ooXXX X ..X",
"..o. X X...  X .......o. +$&@&$+++*&@&$+...  X .......o...o..o..",
"..o.X X  XXXX  Xo...XX X X+$&@&$**&@&$+  XXXX  Xo...XX X X..X. .",
". ...o.....  .... Xo.X .o .+$&@@#@@#$+.....  .... Xo.X .o .... .",
".   X.....o..ooo.X .. X.Oo..+*&@@@#$+.....o..ooo.X .. X.Oo... X ",
"O.. X.oo...  .. X....X .Oo..oO*#@@$+..oo...  .. X....X .Oo.... .",
"O. X..oo.X X .XX ooo. X o... +%#@-$+ .oo.X X .XX ooo. X o.....oO",
".  Xo...XXX...  . oo.XXX.X...+%#@-$+o...XXX...  . oo.XXX.X...XX.",
". Xoo.Xo.X....... ..X X.XX.oo+%#@-$+..Xo.X....... ..X X.XX.oo...",
"...o. X...o..X.. X.o. ...o..X+%#@-$+  X...o..X.. X.o. ...o..X.o.",
"..ooXX . X... .o  ...Xo.X...XO%#@@*+XX . X... .o  ...Xo.X... X.o",
"..ooX . XXX.. X   ...  o... X+%#@#*+XX. XXX.. X   ...  o... X  o",
"o..XX oX X ..X X ..o X ... XX+%#@#*+++OX X ..X X ..o X ... X ...",
"..XXX ..o. XX o.....XXX..o . +%#@@=*$*%Oo. XX o.....XXX..o . ...",
"..   .. o. XXX.oo. X.X ... X +%#@@@#&;$+o. XXX.oo. X.X ... X ..o",
"o.X. ...o.. X ....XXXX .o.XX +%#@@@#=%OOo.. X ....XXXX .o.XX.o .",
" X.  ...o. X.Xo..o.X  ...X X +%#@@@@#&$+o. X.Xo..o.X  ...X X.oo.",
"X ....... XXXX.....X . o.X . +%#@@@@@&$+. XXXX.....X . o.X .....",
" .o...o. X.XX.oX ...........X+%#@@@@#=+O X.XX.oX ............. X",
"  o. .o.X.o. ..X X...o...o.. +%#@@=**OO X.o. ..X X...o...o...XX ",
"....XX.X .o.....X .o..X . .X OO=#=O++O X .o.....X .o..X . .X ...",
"o..o......o....o. .o.X.   X   oO$OOo. ....o....o. .o.X.   X   X.",
"o.XoO.....o.. X..oo.X ...XX  . o+OXoO.....o.. X..oo.X ...XX  ...",
".o.oO..ooX.. X.o. .XX X.. XXX....o.oO..ooX.. X.o. .XX X.. XXX...",
"X.X.o .oX . X ... XXX  .oo X.o.  .X.o .oX . X ... XXX  .oo X.o..",
"o.X... XX  X .  XXXX X..oo ..o. o.X... XX  X .  XXXX X..oo ..o.X",
"o..oo XXX X ....X X.. ... ooX ..o..oo XXX X ....X X.. ... ooX ..",
"o.X.oXXXXX .oo.o.o... .o....XX..o.X.oXXXXX .oo.o.o... .o....XX..",
"..    XX.. X.oXX .......X  X .  ..    XX.. X.oXX .......X  X . X",
"...XXo.XX ....   ..o... X XXX.  ...XXo.XX ....   ..o... X XXX.  ",
".X XX..   .. X....X..  X.XXXXXo..X XX..   .. X....X..  X.XXXXXo.",
".o.X .. ... . .....X..XXXXX.X ...o.X .. ... . .....X..XXXXX.X ..",
".oooX ..o.oo. Xo.....ooXXX X .. .oooX ..o.oo. Xo.....ooXXX X ..X",
"..o. X X...  X .......o...o..o....o. X X...  X .......o...o..o..",
"..o.X X  XXXX  Xo...XX X X..X. ...o.X X  XXXX  Xo...XX X X..X. .",
". ...o.....  .... Xo.X .o .... .. ...o.....  .... Xo.X .o .... .",
". X X.....o..ooo.X .. X.O.... X . X X.....o..ooo.X .. X.O.... X "
};
