/* XPM */
static char *exit_close__64_1729582941[] = {
/* columns rows colors chars-per-pixel */
"64 64 27 1 ",
"  c #3E423D",
". c #3D413D",
"X c #40433E",
"o c #3B3F3C",
"O c #3A3E3A",
"+ c #3E413D",
"@ c #272522",
"# c #42443F",
"$ c #381F14",
"% c #422517",
"& c #4B2A1B",
"* c #301910",
"= c #1E1A18",
"- c #572F1E",
"; c #7F452B",
": c #23120C",
"> c #323430",
", c #5F3521",
"< c #764028",
"1 c #683A24",
"2 c #955A33",
"3 c #A79079",
"4 c #927C6A",
"5 c #7B6958",
"6 c #4D3628",
"7 c #625242",
"8 c #B29F93",
/* pixels */
"O.. X.oo.+. X+  X....X .OO.... oOo. X.oo.+. X+  X....X .OO.... .",
"O. X+.oo+X X +XX ooo. X o.....oOO. X+.oo+X X +XX ooo. X o.....oo",
".  Xo...XXX...  . oo+XXX.X+..XX..  Xo...XXX...  . oo+XXX.X+..XX.",
". Xoo+Xo+X+..+... ..X X.XX.oo.... Xoo+Xo+X+..+... ..X X.XX.oo...",
"..+o. X..+o.+X+. X.o. ..+o..X+o...+o. X..+o.+X+. X.o. ..+o..X+o.",
"..ooXX . X+.. .o  ..+Xo.X... X....ooXX . X+.. .o  ..+Xo.X... X.o",
"..ooX . XXX.. X   ...  o... X  oo.ooX . XXX.. X   ...  o... X  o",
"o..XX oX X ..X X ..o # ... X ..oo..XX oX X ..X X ..o # ... X ...",
"..XXX ..o. X# o....+X#X..o + .....XXX ..o. X# o....+X#X..o + ...",
"..   .. o. ##X.oo. X+# ... X ..oo.   .. o. ##X.oo. X+# ... X ..o",
"o+X. ...o.. X ....XXX# .o+XX.o .o+X. ...o.. X ....XXX# .o+XX.o .",
" X.  ...o. X+Xo..o+X  ...X X.oo. X.  ...o. X+Xo..o+X  ...X X.oo.",
"X .+..... X##X....+X . o.X .... X .+..... X##X....+X . o.X ....+",
" .o...o. X.X#+oX +.+.........+ X .o...o. X.X#+oX +.+.........+ X",
"  o. .o+X+o. ..X X+..o...o.+.XX   o. .o+X+o. ..X X+..o...o.+.XX ",
".+..XX+X .o....+X .o.+X + .X ....+..XX+X .o....+X .o.+X + .X ...",
"o..o...+..o....o+.OOOX.  XXXX X.o.+o. + ..OOOO.o. .o+X.   X   X+",
"o.XoO.....o.. X.o>@=@OOOOOoOOOOOOOOO>OOOOO>@@@O..oo+X ..+##  .+.",
".o.oO..ooX.. X+o>@$%$@=@=@@@@=@@@@@@@@=@=@=$%$@O. .XX X+. ##X...",
"X+X.o .oX . X ..>=%&%$&&&------111111,-&&%$&&$@o  X##  .oo #+o..",
"o.X..+ X#  X .  >=&6&%,,,1<<<<;;;;;;;;1,,-%66$@oXXXX X+.oo +.o.X",
"o.+oo XX# X ... >@66-%--,,,1<;<;<11,,,,,-&&66%@oX X.. ..+ ooX ..",
"o.X.oXX##X .oo..>@,,-$$$%%%&-11111-&%&%%$*%,,&@O.o... .o.+.+#X..",
"..    XX.+ X.oXX>@<<1%&-,,,,<;<;<<<1,----&-<<6@+ .......X  X . X",
".++X#o+#X .+..  >%;;;&,1<<<;;;;;;;;;<<11,-,;;,@.X+.o... X XXX.  ",
"+X XX..   .. X+.>%252&,<;;;;;;;;;;;;;;<1,-155<@o.+X+.  X+XXX#Xo.",
".o.X .. ... . +.>&252&-,,,<<<<<<<<<<<<1,-&125;@o...X+.XXX#X+X ..",
".oooX .+o.oo. Xo>&222$***$%&%%%%%%&&%%$***,22<@O...+.ooXXX X ..X",
"..o. X X...  X +>&222**$$%-&$*-2<$$&--&$$*,22;@o......o+++o..o.+",
"..o.X X  XXXX  X>%22;$$%---$$&;2;&*$%---&*-22<@+o.+.XX X X.+X+ .",
". ..+o...++  ...>%;;<*$$%%$&;;<;<,-&*$%%%*&;;1@O. Xo.X .o +.+. .",
".   X.....o..ooo>@<71**$$*%;;666666,&*$$$*&77,=>OX .. X.Oo... X ",
"O.+ X.oo.+.  .+ >@161*:*:$1<754444761&*:*:&166=@>....X .Oo.... .",
"O. X+.oo+X X +X#>@,,-****,1738333347&1%:*:%,,&=@>Ooo. X o.....oO",
".  Xo...XXX...  >@--&***%->588333335>$&*::$--%=@>.oo+XXX.X+..XX.",
". Xoo+Xo+X+..+..>=%&%$$&1&@533333334>*,,%$$&&$=@>...X X.XX.oo...",
"..+o. X..+o.+X+.>=&-,<221$@544444445#:-;221,,%=@> .o. ..+o..X+o.",
"..ooXX . X+.. .o>@1;222;-$>5&-657&-#7:&12222;6=@>+..+Xo.X... X.o",
"..ooX . XXX.. X >=%&-,-&$:>4&$+45%$75:*$-11,&$=@> ...  o... X  o",
"o..XX oX X ..X X>==*$%%*::>4554334545:::*%%$===@>..o # ... X ...",
"..XXX ..o. X# o.>=$%%&&$**$@=#3345@@$$**$%&&$*=@>o.+X#X..o + ...",
"..   .. o. ##X.o>=*$$:::::**=73454>:$*::::*$$==@>o X+# ... X ..o",
"o+X. ...o.. X ..>=&-%:::::::@53454#:::::::$&&$=@>oXXX# .o+XX.o .",
" X.  ...o. X+Xo.>@,,%:::::::*&66&&%:::::::$--%=@>O X  ...X X.oo.",
"X .+..... X##X. >@,,%::*$$***$********:*::$,,&=@>o+X . o.X ....+",
" .o...o. X.X#+oX>=&-%=%-<<1--11---,<<1--&*$--%=@>..+.........+ X",
"  o. .o+X+o. ..XO@$%$=*$%%$*$$%%%%%%&%$$*:=%%$=>.X+..o...o.+.XX ",
".+..XX+X .o....+ >@===========================>oX .o.+X + .X ...",
"o..o...+..o....o+.>@@@@@@@@@@@@@@@@@@@@@@@@@@>oo. .o+X.   X   X+",
"o.XoO.....o.. X..oo.+.OOo++ooO.ooo.OO.o.ooOoo.X..oo+X ..+##  .+.",
".o.oO..ooX.. X+o. .XX X+. ##X....o+oO....X.. X+o. .XX X+. ##X...",
"X+X.o .oX . X ..+ X##  .oo #+o.  +X.o .oX . X ..+ X##  .oo #+o..",
"o.X..+ X#  X .  XXXX X+.oo +.o. o.X..+ X#  X .  XXXX X+.oo +.o.X",
"o.+oo XX# X ....X X.. ..+ ooX ..o.+oo XX# X ....X X.. ..+ ooX ..",
"o.X.oXX##X .oo.o.o... .o.+.+#X..o.X.oXX##X .oo.o.o... .o.+.+#X..",
"..    XX.+ X.oXX .......X  X .  ..    XX.+ X.oXX .......X  X . X",
".++X#o+#X .+..   +.o... X XXX.  .++X#o+#X .+..   +.o... X XXX.  ",
"+X XX..   .. X+..+X+.  X+XXX#Xo.+X XX..   .. X+..+X+.  X+XXX#Xo.",
".o.X .. ... . +....X+.XXX#X+X ...o.X .. ... . +....X+.XXX#X+X ..",
".oooX .+o.oo. Xo...+.ooXXX X .. .oooX .+o.oo. Xo...+.ooXXX X ..X",
"..o. X X...  X .......o+++o..o....o. X X...  X .......o+++o..o.+",
"..o.X X  XXXX  Xo.+.XX X X.+X+ ...o.X X  XXXX  Xo.+.XX X X.+X+ .",
". ..+o...++  .... Xo.X .o +.+. .. ..+o...++  .... Xo.X .o +.+. .",
". X X.....o..ooo.X .. X.O.... X . X X.....o..ooo.X .. X.O.... X "
};
