/* XPM */
static char *exit_open__64_1729582957[] = {
/* columns rows colors chars-per-pixel */
"64 64 73 1 ",
"  c #3D413D",
". c #3E423D",
"X c #3C403C",
"o c #3F423E",
"O c #3E413D",
"+ c #3A3F3B",
"@ c #40433F",
"# c #41433F",
"$ c #212220",
"% c #3F433C",
"& c #3F2316",
"* c #42443F",
"= c #1C1715",
"- c #321A11",
"; c #4D291A",
": c #262724",
"> c #20100B",
", c #39190E",
"< c #2C170F",
"1 c #371F14",
"2 c #3A3C38",
"3 c #353834",
"4 c #704227",
"5 c #25130D",
"6 c #5E3620",
"7 c #623B24",
"8 c #2A1D16",
"9 c #532F1B",
"0 c #452919",
"q c #58331E",
"w c #7F4B2B",
"e c #9D5E35",
"r c #33322D",
"t c #421C12",
"y c #6B3E25",
"u c #1F1D1A",
"i c #76472A",
"p c #8D532F",
"a c #B26A38",
"s c #88502F",
"d c #965730",
"f c #A68F77",
"g c #120B09",
"h c #D17C31",
"j c #B95B29",
"k c #89796A",
"l c #796C5C",
"z c #EEB046",
"x c #A84A25",
"c c #FAC042",
"v c #4F3221",
"b c #322C25",
"n c #9C8873",
"m c #C46A2D",
"M c #E69A36",
"N c #E08832",
"B c #A86334",
"V c #6D5A4E",
"C c #A99382",
"Z c #923A20",
"A c #88301D",
"S c #5B4C3C",
"D c #712317",
"F c #774E37",
"G c #B77A35",
"H c #762C1A",
"J c #571F14",
"K c #F3D46C",
"L c #C98A44",
"P c #85634E",
"I c #954A26",
"U c #B6A194",
"Y c #D3964E",
/* pixels */
"+X .% +X O .%O.o# X  %. ++X   .X+X .% +X O .%O.o# X  %. ++X   . ",
"+ .#O X+O#o@.O##.++X o#.X     X++ .#O X+O#o@.O##.++X o#.X     X+",
" .ooX   @@@X  .. .X+O#@o @OX %@  .ooX   @@@X  .. .X+O#@o @OX %@ ",
" .@XXO@XO@O  O   .  @o@Xo% ++    .@XXO@XO@O  O   .  @o@Xo% ++   ",
"  OX o#  O+ O@O .@ + .  OX  oO+   OX o#  O+ O@O .@ + .  OX  oO+ ",
"  X+%#o o@O  . X.o  OoX @   o#    X+%#o o@O  . X.o  OoX @   o# X",
"XX++@o .#@%  .@...   ooX   o#o.+XX++@o .#@%  .@...   ooX   o#o.+",
"+  @@.Xoo@. Xoo@.  +.*o   .@o  X+  @@.Xoo@. Xoo@.  +.*o   .@o   ",
"X %@@.  X .@*o+X   O#*%  XoO.     %@@.  X .@*o+X   O#*%  XoO.  X",
"X ...  .X .**# ++ .@O*o X o@OXX+X O..  .X .**# ++ .@O*o X o@.  +",
"+Oo .   +X o#o XX %@#*. +.*%r::::::r .  +X o#o XX %@#*. +O#% Xo ",
".oXo.  X+Xo@OoX  +O#o.  +3rrr22rrrbbrrr2+Xo@OoX  +O#o.   #o% XX ",
"#.XO     .#**% O  .*...23:=uVCCnnnkS==$r2o#**@ .  O#. .X #.    O",
". +X X+ ooX#*OXX2222222rbv8%kCCCfffl28vbr22++232+O O         Oo#",
".o+ . +O#O+ . +r$$$uuuub61rlnnnffnnnl31q0uuuu$$$bXO X+   XXO %@o",
" O  @%O@o X  Xrb77v=g>g178#kl2SllS2Vk*=7v<<<<v77vr++XOo.OoX@. X ",
"+  +   O X+X +:qeep->>g<q8VnlSVlkVSlnl89;-1-1weey:2+O@X..o#o..oO",
"X oX+X    +X +:vdBp-ggg508kUCffffffCUnb0&<-<1sBe7$2.@o  O**o. O ",
" X ++  XXo  .X:&4wi1<<51q1Vkkkffffkkkl1;9&&&&4wi0$2#o.@O o**#   ",
"oO@ +o Xoo o#X:1q6qv6y6q71==uSfCffV$==<;7yy7qq6q&$+**o. +Xo*O+X ",
"+ %  Oo#*..@o+:=888888888=gg:lCCknlrgg==88888888=$+#o@O XXoO + %",
"X O+X.##*o%. +:81115>>>>>5>g=b23brrug>55>>=>51118$2X .  OoX+@.  ",
"+ @ X@@**#. ++:8;q9-55<----<55555555<----<55<&9q&$2  . + O O*%  ",
"X ..o.## O.@ 2:1q7q-<1&;;;;;;;;;;;;;;;;;;&<5<;670$2     #.o#o .%",
" OO#*XO*@. O +:&67y;1&;;;;;;;;;;;;;;;;;;;&<<07770$2X   o#o#@# o.",
"Oo.@#  ..o  .O:0y4ww9&&&&&&&&&&&&&&&&&&&&&1;isiy0$2. oo@O%@#*@X ",
" X oo  .   . X:0iwwwFFFi4444444444444444iFFiwwwiv$2@O @@#*#O#o  ",
" X+X@o O+XXX +:896qqVklS9;;q66666666666qVklS9;;;1$2. ++oo#oo.  %",
"  XXo#o@  XooX:89y4yVPPFyyy444ispppppsi4FPPFyyy9-$2  X+OOOX  + O",
"  + @o@o.##@#X:&4ssssddppeeedspeeeBaaaBeeddepssi0$2 %#.o.@ O@O. ",
" .  OX   OOo.+:vppy77447yiww4777774wwwwww4yiy7wd7$2X %. +.O O . ",
" ...@ X   +  2:vep&<------------tttt----------4Bi$3X .% +X   .@.",
"+XO.% +X O .%+:7ad1-------11111tDZZHttt,,-----waiu:3X%. ++    . ",
"+ .#O X+O#o@.+:7ad1<<<<<<<11t&tJALzGZADJt<<<<-waiu$b2o#.X     X+",
" .ooX   @@@X +:7ad1<--ttttttJHHAjzcczYjxHtt,5-waiu$:3#@o @OX %@ ",
" .@XXO@XO@O  +:7ad1<1tHdBDJJZjhhhNMzKKNmZDDDt-4Biu$:2@@Xo% ++   ",
"  OX o#  O+ .O:7ad15,JZhhZAxjNccMmxhzzMNmZxGe;4eyu$:3.  OX  oO+ ",
"  X+%#o o@O  +:7ap&,yyAxxZjhNNMccjxhNNzcNxaKKSie7u$:3@X @   o# X",
"XX++@o .#@%  X:7ew;yLaDDDAjMcMjMMjLczNzzNjhKzi4e4u$:3ooX   o#o.+",
"+  @@.Xoo@. XO:vep6GhIHZADAhcMjxxmMcczNhjmzch6yp7u$:3*o   .@o   ",
"X %@@.  X .@*X:6ew9BIHBYjAAxmhjxhMMMczhmxmczmqys6u$:2*%  XoO.  X",
"X ...  .X .**O:vdw4pwIaLmjxxxedIaGaaGGmmjaLGeiws6u$:3*o X o@.  +",
"+Oo .   +X o#X:vspeeeBaaepi4y666666667seBaaepeed6u$:2*. +O#% Xo ",
".oXo.  X+Xo@OX:04isdddswyq&,,,,,,,,,,t9yispswppwv=$:2.   #o% XX ",
"#.XO     .#**O:8&0;99;&,,&t,,,,,,,,,,t&,,1&099;08=$:3 .X #.    O",
". +X X+ ooX#*+:=8t,55>>>>-&t,,,,,,,,,&,>>>>>581-==$:3        Oo#",
".o+ . +O#O+ .+:809&<>>>>>><,,,,,,,,,,,>>>>>>50;&8=$:3+   XXO %@o",
" O  @%O@o X  +:16605>555>>><,&&&&&&t<>>>555>5999&=$:3.o.OoX@. X ",
"+  +   O X+X +:&7605>>>55>>><<<<<<<<>>>>>>>>59660=$:3@X..o#o..oO",
"X oX+X    +X +:1q60=5-&99;&1&;0&111&0;0&111<=9660=$:2o  O**o. O ",
" X ++  XXo  .X:8;q0=-;644yq96yy6qqq7444699;1u;99&=:r2.@O o**#   ",
"oO@ +o Xoo o#X:8&&1=<-1001---10&&&&0000&1--<=1&&8ubX#o. +Xo*O+X ",
"+ %  Oo#*..@o 2bu===============================ub2@o@O XXoO + %",
"X O+X.##*o%.   2r$$$$$$$$$$$$$$$$$$$$$$$$$$$$$$$b2oX .  OoX+@.  ",
"+ @ X@@**#. +X X233333333333333333333333333333332+   . + O O*%  ",
"X ..o.## O.@ +@#.       #.o#o ..  ..o.## O.@ +@#.       #.o#o .%",
" OO#*XO*@. O  ..oO +   o#o#@# o. O.**X.*#. O  ..oO +   o#o#@# o.",
"Oo.@#  ..o  .@O  OoO oo@O%@#*@X Oo.@#  ..o  .@O  OoO oo@O%@#*@X ",
" X oo  .   . .O   XoO @@#*#O#o   X oo  .   . .O   XoO @@#*#O#o  ",
" X+X@o O+XXX .oX   O ++oo#oo.  . X+X@o O+XXX .oX   O ++oo#oo.  %",
"  XXo#o@  Xoo%.      X+OOOX  +    XXo#o@  Xoo%.      X+OOOX  + O",
"  + @o@o.##@#..oX O %#.o.@ O@O.   + @o@o.##@#..oX O %#.o.@ O@O. ",
" .  OX   OOo.    .oX %. +.O O .  .  OX   OOo.    .oX %. +.O O . ",
" .%.#    X+  +X+ #o  .% +    .#. .%.#    X+  +X+ #o  .% +    .#."
};
