/* XPM */
static char *p641729582833[] = {
/* columns rows colors chars-per-pixel */
"64 64 16 1 ",
"  c #3D413D",
". c #3E423D",
"X c #3B3F3B",
"o c #40433F",
"O c #050605",
"+ c #151515",
"@ c #353835",
"# c #232323",
"$ c gray75",
"% c #1D1D1D",
"& c #ACACAC",
"* c #969595",
"= c #898787",
"- c #807E7E",
"; c #706F6F",
": c #5E5D5D",
/* pixels */
"X  .o XX   .o ..o    o. XX    .XXX .o XX   .o ..o    o. XX    . ",
"X .o  XX o.o. oo.XXX .o.X     XXX .o  XX o.o. oo.XXX .o.X     XX",
" ..oX   ooo   .. .XX oo. o   oo  ..oX   ooo   .. .XX oo. o   oo ",
" .oXX oX o       .  o.o .o XX    .oXX oX o       .  o.o .o XX   ",
"   X .o   X  o  .o X .   X  . X    X .o   X  o  .o X .   X  . X ",
"  XXoo. .o   . X..   oX o   .o    XXoo. .o   . X..   oX o   .o X",
"  XXo. .ooo  .o...   ..X   .o..XX XXo. .ooo  .o...   ..X   .o..X",
"X  oo.X..o.  o.o.  X.o.   .o.  XX  oo.X..o.  o.o.  X.o.   .o.   ",
"  ooo.  X .oo.X     ooo  X. .     ooo.  X .oo.X     ooo  X. .   ",
"  ...  .X .ooo XX .o o.   .o.  XX ...  .X .ooo XX .o o.   .o.  X",
"X . .   X  .o.    oooo. X oo X. X . .   X  .o.    oooo. X oo X. ",
".o ..   X .o .X  X o..   o.o XX .o ..   X .o .X  X o..   o.o XX ",
"o.       .oooo     o. .X o.    .o.       .oooo     o. .X o.     ",
". X   X .o oo Xo.             .o. X   X .o oo Xo.             .o",
"..X . X o X .  o.o   X   X   oo...X . X o X .  o.o   X   X   oo.",
"    oo o. X     o. X  .. . o.       oo o. X     o. X  .. . o.   ",
"X  X      X    X . X o ..oooo.o X .X .... X .. X . X o ...o.... ",
"X oXX     X  .o  XX o.   XX@@@@@@@@@@@@@@@@@@@XX XX o.   oo..   ",
" X XX  XXo  .o X . o..o.@OOOOOOOOOOOOOOOOOOOOO+@ . o..o  .ooo   ",
"o o X. X.. .o.   .ooo. @@OOOOOOOOOOOOOOOOOOOOOO@..ooo.. XX.o X  ",
"X o   .oo..o. ..oooo.o@OO%%%%%%%%%%%%%%++++++OO@oooo.o  XX.  X .",
"X  XX.ooo.o.    o.o X@@OO%#@@@@########++++++OO@o.o  .   .XXo.  ",
"X o Xooooo. XX X X  @OO%%+#*&&*#+++#####%++++OO@ X   . X    oo  ",
"  ....oo  .o Xoo.   @OO%## &$$&@#########++++O+X.       o..o. .o",
"   ooX oo.    ...  X@OO+#*&$$$$&&&*#+####+++%@@ o  X   .o.ooo ..",
" ..oo  ...  .o    ..@OO# &$$$&&$$$&#+%###+++%X.   .  ..o .ooooX ",
" X o.  .   . .     o@O+*&$$$&oo&$$&#+++###%OO@.    o  ooooo o.  ",
" XXXo.  X XX ..X  X@@+@&$$$$&oo&$$&#+++###%O+XoX     XXo.o.o.  .",
"  X .o.o   ..o.   @O%*&$$$$$$&&$$$&#+%###+%@X..       X   X  X  ",
"  X o.o..oooo...X @O%&$$$$$$$$$$$$&#+####+%Xo. .X   oo.o.o  o . ",
" .   X     ..    .@O%&$$$$$$$$$$$*-#+###%OOX.    .oX o. X.    . ",
" ...o     X  XXX o@O%*&&&&&$$$$$&=;#+###%OO@ XXX o.  .. XX   .o.",
"X  .o XX   ..  .o X@@%%###@=****=@#####++OO@o  .o    o. XX    . ",
"X .o  XX o.o. oo.XX @OO+++#;----;%+%###++OOX. oo.XXX .o.X     XX",
" ..oX   ooo   .. .XX@OO++++######++++##++OO@  .. .XX oo. o   oo ",
" .oXX oX o       .  @OO++++++++++%%++%%++OO@     .  o.o .o XX   ",
"   X .o   X  o  .o X@OO+++++++++%::%+++++OO@.o  .o X .   X  . X ",
"  XXoo. .o   . X..  @OO++##++++#@;;##++++OO@.. X..   oX o   .o X",
"  XXo. .ooo  .o...  @OO+#;;%++#;-==-;#+++OO@ .o...   ..X   .o..X",
"X  oo.X..o.  o.o.  X@OO+#--@##@-*==*-#+++OO@ o.o.  X.o.   .o.   ",
"  ooo.  X .oo.X    .@OOO+-=----==*==-#+++OOXo.X     ooo  X. .   ",
"  ...  .X .ooo XX .o@OOO+=**********-#+++OOXoo XX .o o.   .o.  X",
"X . .   X  .o.    oo@OOO+&$$$$$$$$$$&#+++OO@o.    oooo. X oo X. ",
".o ..   X .o .X  X o@OOO%&$$&&&&&&&$&@#++OOX..X  X o..   o.o XX ",
"o.       .oooo     o @@O%&$*-#++++@&$=;+OOOXoo     o. .X o.     ",
". X   X .o oo Xo.    .@O%*&-;OOOOO%*&-;OOO+Xo Xo.             .o",
"..X . X o X .  o.o   XX@@%+++OO@@@@%+++OO@@X.  o.o   X   X   oo.",
"    oo o. X     o. X  oo@OOOOO+@..@OOOOO+@      o. X  .. . o.   ",
"X  X      X    X . X o . @@@@@XXX X@@@@@@XX    X . X o ...o.... ",
"X oXX     X  .o  XX o.  .ooo...   o X .   X  .o  XX o.   oo..   ",
" X XX  XXo  .o X . o..o  .ooo    X XX  XXo  .o X . o..o  .ooo   ",
"o o X. X.. .o.   .ooo.. XX.o X .. o X. X.. .o.   .ooo.. XX.o X  ",
"X o   .oo..o. ..oooo.o  XX.  X .X o   .oo..o. ..oooo.o  XX.  X .",
"X  XX.ooo.o.    o.o  .   .XXo.  X  XX.ooo.o.    o.o  .   .XXo.  ",
"X o Xooooo. XX X X   . X    oo  X o Xooooo. XX X X   . X    oo  ",
"  ....oo  .o Xoo.       o..o. ..  ....oo  .o Xoo.       o..o. .o",
"   ooX oo.    ...  X   .o.ooo ..   ooX oo.    ...  X   .o.ooo ..",
" ..oo  ...  .o    .  ..o .ooooX  ..oo  ...  .o    .  ..o .ooooX ",
" X o.  .   . .     o  ooooo o.   X o.  .   . .     o  ooooo o.  ",
" XXXo.  X XX ..X     XXo.o.o.  . XXXo.  X XX ..X     XXo.o.o.  .",
"  X .o.o   ..o.       X   X  X    X .o.o   ..o.       X   X  X  ",
"  X o.o..oooo...X   oo.o.o  o .   X o.o..oooo...X   oo.o.o  o . ",
" .   X     ..    .oX o. X.    .  .   X     ..    .oX o. X.    . ",
" ...o     X  XXX o.  .. X    .o. ...o     X  XXX o.  .. X    .o."
};
